<svg width="23" height="26" viewBox="0 0 23 26" fill="none" xmlns="http://www.w3.org/2000/svg">
<path d="M20.5056 23.1527H20.6306V23.0277V21.7704C20.6306 19.3607 18.6192 17.402 16.1577 17.402C15.9535 17.402 15.7268 17.4559 15.4722 17.5297C15.3683 17.5598 15.2611 17.5928 15.1474 17.6278C14.9733 17.6814 14.784 17.7397 14.5681 17.7994C13.8668 17.9936 12.936 18.1878 11.6488 18.1878C10.3717 18.1878 9.43958 17.9936 8.73498 17.7994C8.51827 17.7397 8.32791 17.6814 8.15287 17.6279C8.03838 17.5928 7.93044 17.5598 7.82595 17.5297C7.57009 17.4559 7.34283 17.402 7.13987 17.402C4.67836 17.402 2.66699 19.3607 2.66699 21.7704V23.0277V23.1527H2.79199H20.5056ZM11.6488 16.0804C12.8502 16.0804 13.6291 15.8807 14.2866 15.6821C14.3677 15.6577 14.4465 15.6333 14.5238 15.6095C15.0738 15.4398 15.5445 15.2946 16.1577 15.2946C19.8255 15.2946 22.7961 18.1981 22.7961 21.7704V23.0277C22.7961 24.2573 21.773 25.2601 20.5056 25.2601H2.79199C1.52459 25.2601 0.501495 24.2573 0.501495 23.0277V21.7704C0.501495 18.1981 3.47208 15.2946 7.13987 15.2946C7.75587 15.2946 8.22727 15.4401 8.7775 15.61C8.85421 15.6337 8.93244 15.6578 9.01282 15.6821C9.66966 15.8807 10.4474 16.0804 11.6488 16.0804ZM18.7703 7.31148C18.7703 11.1441 15.5833 14.2588 11.6488 14.2588C7.71428 14.2588 4.52731 11.1441 4.52731 7.31148C4.52731 3.47887 7.71428 0.364197 11.6488 0.364197C15.5833 0.364197 18.7703 3.47887 18.7703 7.31148ZM16.6048 7.31148C16.6048 4.64151 14.377 2.47162 11.6488 2.47162C8.92057 2.47162 6.69281 4.64151 6.69281 7.31148C6.69281 9.98144 8.92057 12.1513 11.6488 12.1513C14.377 12.1513 16.6048 9.98144 16.6048 7.31148Z" fill="#878787" stroke="white" stroke-width="0.25"/>
</svg>
