<svg width="24" height="24" viewBox="0 0 24 24" fill="none" xmlns="http://www.w3.org/2000/svg">
<path d="M9.71725 0.104797C4.52115 0.104797 0.287537 4.33841 0.287537 9.5345C0.287537 14.7306 4.52115 18.9642 9.71725 18.9642C11.9641 18.9642 14.0289 18.1708 15.6515 16.8507L22.0311 23.2303C22.4116 23.6108 23.0326 23.6108 23.4131 23.2303C23.7935 22.8499 23.7935 22.2386 23.4131 21.8582L17.0334 15.4785C18.3536 13.8559 19.147 11.7846 19.147 9.5345C19.147 4.33841 14.9133 0.104797 9.71725 0.104797ZM9.71725 2.05577C13.8598 2.05577 17.196 5.39194 17.196 9.5345C17.196 13.6771 13.8598 17.0132 9.71725 17.0132C5.57468 17.0132 2.23851 13.6771 2.23851 9.5345C2.23851 5.39194 5.57468 2.05577 9.71725 2.05577Z" fill="#878787"/>
</svg>
